<?xml version="1.0" encoding="UTF-8"?>
<svg id="Layer_1" xmlns="http://www.w3.org/2000/svg" version="1.1" viewBox="0 0 723.5 633.2">
  <!-- Generator: Adobe Illustrator 29.5.1, SVG Export Plug-In . SVG Version: 2.1.0 Build 141)  -->
  <path d="M77.9,6.3C96.1,1.7,115,0,133.8,0c23.4-.5,47.8,4.1,67.5,17.3,13.1,8.6,22.9,22.8,24.7,38.5,1.3,15.1-.9,31.5-10.4,43.9-10.7,13.9-30.3,18.5-46.8,14-5.1-1.4-9.5-4.9-11.7-9.7,10.1-8.2,20.2-17.5,25.2-29.8,3.4-7.6,1.6-16.5-2-23.7-4.6-9.1-13.3-15.7-22.9-18.8-13.7-4.5-28.5-3.4-42.6-1.8-17.9,2.4-36.1,8.9-48.7,22.3-11,11.4-16.6,27.1-17.8,42.7-.4,6.1-.9,12.5,1.4,18.4,2.5,7.1,7.6,12.9,13,17.9,8.9,8.1,19.2,14.3,29.7,20.2,24.1,13.4,49.5,24.6,73.1,38.9,13.1,8.1,25.9,17.2,35.6,29.4,6.8,8.6,11.5,19.2,11.6,30.2.1,14-2.5,28.1-8.3,40.8-7.6,16.8-20.4,30.8-35.5,41.2-25.8,17.6-56.9,26.5-87.8,29,.7,0,2.1,0,2.8.1-14.6.6-29.5,2.1-43.8-2-11.4-3.1-22.1-9.6-29.3-19-6-7.9-9.5-17.5-10.5-27.4-1.4-21.8,2.6-44.7,14.9-63.1,9.3-14.1,24.8-23.9,41.5-26.1,8.2-1.1,17.6-2.1,24.8,2.9,5.4,3.5,7.7,10,8.8,16-14,4.9-27.4,12.9-36.6,24.7-8.9,11.2-13.5,25.7-12.6,40,1.3,9.3,8.4,17.1,16.9,20.6,9.5,4.2,20.2,3.2,30.2,1.5,21.2-3.9,42.3-12.6,57.6-28.2,12.6-12.8,19.4-31,18.4-48.9-.4-5.6-2.8-10.9-6-15.5-6.4-8.7-15.5-14.8-24.5-20.4-27.1-15.9-56.8-26.9-83.5-43.5-16.3-10.1-32.2-22.4-41.6-39.5-5.2-9.5-7.9-20.3-7.6-31.1-.2-22.2,5.8-45.3,20.4-62.5C35.6,22.1,56.5,11.8,77.9,6.3Z"/>
  <path d="M308,58.1c7.9-2.4,16.2-5,24.6-3.7-.2,2.6-.5,5.1-1,7.6-5.1,21.9-10.4,43.8-15.6,65.7,13.2-2.9,26.4-5.6,39.7-7.2,5.2-.3,11.1-1.2,15.6,2,2.4,1.6,3.5,4.7,2.6,7.4-1.1,3.3-3.5,6-5.4,8.8-4.1,5.5-8.1,11.3-12.8,16.3-2.4,2.6-5.8,3.7-9.2,4.3-13.8,2.6-27.5,5.9-41.1,9.3-5.9,21.2-11.7,42.5-16.8,64-1.5,7.1-3.4,14.1-4.2,21.3-.3,5,.4,10.6,3.9,14.4,3.5,3.5,9,3,13.3,1.6,11-3.7,20.9-10.1,30.7-16.1,1.1-13.2,3.4-26.4,8.8-38.6,8.3-19.6,22.6-36.9,41-47.8,10.8-6.2,23.1-10.7,35.7-9.8,5.7.5,7.1,7.1,11.6,9.6,6.5,3.2,14.4-.7,20.8,2.6,4.6,3.5,4.2,10.1,4,15.2-1.7,22.3-10.5,43.5-10.8,66,.3,6.1.2,12.6,3,18.2,1.6,3.7,6.5,2.7,9.4,1.2,6.1-3.4,10.7-8.9,14.9-14.4,2.1-3,4.6-5.8,5.5-9.4,11.2-54.7,26.2-108.6,39.6-162.8,2-8.7,4.4-17.4,5.4-26.3,10.1-3,21.6-4.1,31.3.7,7.2,3.6,10.1,12.3,9.2,19.9-1.9,20-8.7,39.2-14.8,58.2-4.5,14-9.8,27.9-12.4,42.4,14.6-7.6,26.9-18.7,38.8-30,11.7-11.2,22.8-23.2,33.3-35.5,6.8,1.6,14.2,3.4,19.2,8.7,3.7,3.6,3.3,9.7.7,13.9-4.1,7-10.2,12.5-15.9,18.2-17,15.6-35.1,30-53.6,43.7,2.7,21.6,7.7,43.1,15.6,63.5,7.2,18.2,16.9,36.1,31.6,49.3,10.5,9.6,24.1,15.9,38.4,17,24,1.4,49.3-3.9,68.4-19.2,3.5-2.7,6.6-6.1,10.8-7.5,3.4,10.2,1,22.1-6.5,29.8-9.3,9.7-22.5,14.3-35.4,17.1-17.5,3.4-35.6,4.2-53.2,1.4-20.3-3.4-39.8-13.1-54.1-27.9-11.1-10.8-19.6-24-26.3-38-11-23.5-16.8-49.1-19.9-74.9-3.2,8.8-4.4,18.1-5.6,27.3-1.5,12.1-1.9,24.2-2.6,36.4-.4,7,0,14.1-1.4,21.1-4.9,3.9-11.2,5.3-17.1,6.7-7.5,1.3-16.4,1.9-22.6-3.3-5.3-4.4-5.8-11.7-5.8-18-5.1,7.4-11.2,14.6-19.2,19-6.2,3.6-14,2.4-20.1-.7-7.7-4-12.5-11.7-15.9-19.3-11,10.8-24.8,19.5-40.3,21.5-11.8,1.7-24.8-1.8-33.1-10.7-3.1-3.2-5.2-7.1-7.1-11.1-15.7,11-33.5,19.5-52.8,21.4-9.5.6-19.8.7-28.3-4.3-7.8-4.1-12.4-12.6-13.2-21.2-.9-9.4,1-18.7,2.5-28,3.9-21.8,9.1-43.3,14.5-64.8-11.1,4.2-22.2,8.4-33.7,11.3-4.2,1-8.6,1.8-12.9,1-4.9-1.3-8.4-5.4-11.1-9.4-3.9-6.2-6.6-13.1-8.4-20.2,25.1-9,50.4-17.2,75.7-25.9,4.4-16.3,8.6-32.7,13-49,3-13.7,13.4-26.2,27.1-29.8h0ZM403.8,189.9c-11.9,10.1-20.7,23.4-27.6,37.4-4.6,10.3-9.1,21.3-8,32.8.3,4.8,3.5,9.6,8.4,10.5,6.6,1.2,13.7-.6,19.1-4.6,9.3-7,14.2-18.1,17.6-28.9,5.2-17.8,7.3-36.5,7.1-55.1-6.2.9-11.9,3.8-16.6,7.8Z"/>
  <path d="M653.1,167c10.9-5.8,23.4-9.6,35.8-8.3,10.9,1,21.9,5.4,29.2,13.8,5.5,6.4,4.7,15.5,4,23.4-2,17.1-14,31.7-29.1,39.2-15.2,7.8-32.8,9.2-49.6,8.1-.6,7.8-1,16.6,4.3,22.9,4,5.1,10.9,6.9,17.2,6.6,8.3.2,16.7-1.8,24.1-5.7,7.1-3.9,12.9-9.6,18.8-15,6,3.5,10.9,9.6,11.4,16.8-.2,5.2-4.8,8.7-8.3,12-15.5,12.8-35.6,20.6-55.8,19.6-13.5-.4-27.2-5-36.9-14.7-10.2-10.1-15.2-24.7-15.7-38.9-.7-15.8,4.4-31.5,13-44.7,9.5-14.6,22.6-26.9,37.9-35.2h0ZM682.2,179.1c-8.4,4.7-14.8,12.2-20.2,20-6.7,9.8-12.3,20.5-14.7,32.2,12.2.4,24.3-4.5,32.8-13.1,8.7-8.8,15.7-20.4,15.6-33.2,0-2.9.4-6.2-1.8-8.4-4.1-1-8.2.7-11.8,2.6h0Z"/>
  <path d="M232.2,412.6c7.1-2.8,15.6,3.7,14.3,11.3-.3,8.1-11.1,12.6-17.2,7.3-6.6-4.7-4.8-16.2,2.9-18.6h0ZM232,414.3c-6.4,2.5-7.4,12.2-1.7,16,5.3,4.4,14.1.4,14.8-6.3,1.2-6.9-6.9-12.9-13.1-9.7h0Z"/>
  <path d="M114.1,414.1c14.8,0,29.5,0,44.3,0,0,4.2,0,8.4,0,12.5-10.3-.1-20.6,0-30.9,0,0,4.2,0,8.5,0,12.7,10.1,0,20.3,0,30.4,0,0,4.2,0,8.5,0,12.7-10.1,0-20.3,0-30.4,0,0,8.8,0,17.6,0,26.5-4.5,0-9,0-13.4,0,0-21.5,0-42.9,0-64.4Z"/>
  <path d="M200.4,414.2c3.6,0,7.3,0,10.9,0,0,21.5,0,42.9,0,64.3-4.6,0-9.1,0-13.6,0,0-14.5,0-29.1,0-43.6-2,2.1-4,4.2-6,6.3-2.9-3-5.9-6-8.8-9,5.7-6.1,11.7-11.9,17.5-18h0Z"/>
  <path d="M299.3,414.1c16.8,0,33.5,0,50.2,0,0,4.2,0,8.3,0,12.5-6.1-.1-12.3,0-18.4,0,0,17.3,0,34.6,0,51.9-4.5,0-9.1,0-13.6,0,0-17.3,0-34.6,0-51.9-6.1,0-12.2,0-18.3,0,0-4.2,0-8.3,0-12.5h0Z"/>
  <path d="M380.6,414.2c14.9-.2,29.7,0,44.6,0,0,4.2,0,8.3,0,12.5-10.3,0-20.7,0-31,0,0,4.2,0,8.5,0,12.7,10.1,0,20.1,0,30.2,0,0,4.2,0,8.5,0,12.8-10.1,0-20.2,0-30.2,0,0,4.5,0,9.1,0,13.6,10.3.2,20.6-.3,30.9.3,0,4.2,0,8.3,0,12.5-14.9,0-29.7.1-44.6,0,0-21.4,0-42.8,0-64.2h0Z"/>
  <path d="M478.4,414.1c4.4,0,8.8,0,13.2,0,8.6,21.5,17.2,42.9,26,64.3-4.9,0-9.9,0-14.8,0-1.7-4.3-3.4-8.6-5.2-12.9-8.4,0-16.8,0-25.1,0-1.7,4.3-3.4,8.6-5.1,12.9-4.9,0-9.8,0-14.7,0,8.5-21.5,17.2-42.9,25.8-64.3h0ZM485,432.3c-2.6,6.9-5.4,13.9-8,20.8,5.3,0,10.6,0,16,0-2.3-7.1-5.2-13.9-7.9-20.8h0Z"/>
  <path d="M546.1,414.1c5.2,0,10.4,0,15.6,0,5.3,13,10.5,26.1,16,39.1,5.2-13.1,10.7-26.1,15.9-39.2,5.2,0,10.4,0,15.6,0,0,21.5,0,42.9,0,64.3-4.5,0-9.1,0-13.6,0-.2-11.8.2-23.7-.2-35.5-4.5,12-9.5,23.7-14.3,35.5-2.4,0-4.8,0-7.1,0-4.8-11.9-9.7-23.7-14.5-35.6-.1,11.9,0,23.8,0,35.6-4.5,0-8.9,0-13.3,0,0-21.5,0-42.9,0-64.4h0Z"/>
  <path d="M231.6,416.4c2.9,0,5.8.4,8.7,1,0,1.8.1,3.6.1,5.5-.6.2-1.9.7-2.6.9,1,1.9,2,3.8,2.9,5.8-2.5-2-4.5-4.4-7-6.4-.3,2.4-.7,4.7-1,7.1-1.4-4.5-1.1-9.2-1.1-13.8ZM233.4,417.9c0,1.6,0,3.1,0,4.7,1.7,0,3.5-.1,5.2-.1.1-1.1.2-2.2.3-3.3-1.6-1.2-3.6-.9-5.5-1.2h0Z"/>
  <path d="M368.2,558.3c5.5-5.8,13.9-7.9,21.7-7.5,7.7.4,15.3,1.9,22.5,4.5-1,3.8-2,7.6-3.1,11.4-7.8-1.1-15.7-2.5-23.5-1.8-6.8.5-11,9.5-6.8,14.9,6.3,5.4,15.4,6.5,21.2,12.8,4.6,5.2,4.2,12.9,3.4,19.4-1.2,9-8.1,16.5-16.6,19.2-12.1,4-25.4,1.5-37.1-2.8.8-3.8,1.7-7.7,2.6-11.5,9.6,1,19.6,3.8,29.1.9,4.7-1.3,6.6-6.6,6-11.1.2-4.1-4.1-6-7.1-7.6-6.7-3.4-15-6.3-18.1-13.7-3-9.1-1.2-20.2,5.8-27.1h0Z"/>
  <path d="M8.6,552.1c8.9-.4,17.8.1,26.7,0,0,5.8,0,11.6,0,17.5,3,0,6,0,8.9,0,0-3,0-5.9,0-8.9h8.9c0-2.9,0-5.7,0-8.6,8.8,0,17.6,0,26.4,0,0,8.8,0,17.6,0,26.5-2.9,0-5.7,0-8.6,0-.2,3-.5,6-.5,9-2.8,0-5.7,0-8.5,0,0,3,0,6,0,9,3,0,5.9,0,8.9,0v8.8c2.9,0,5.7,0,8.6,0,0,8.8,0,17.7,0,26.5-8.8-.1-17.7,0-26.5,0,0-2.9,0-5.7,0-8.6-3,0-5.9,0-8.9,0,0-3,0-6,0-8.9-3,0-5.9,0-8.9,0,0,5.9,0,11.7,0,17.6-8.9,0-17.8.1-26.7,0,0-26.5,0-53,0-79.5h0Z"/>
  <path d="M88.5,552.1c8.9-.8,17.8.3,26.7,0,0,26.5,0,53.1,0,79.6-8.9,0-17.8,0-26.8,0,0-26.5,0-53,0-79.6Z"/>
  <path d="M133,552.1c7.2-.7,14.5-.3,21.8-.4,7.4,0,14.9-.2,22.4.2,0,8.9,0,17.7,0,26.6-8.9,0-17.8,0-26.6,0,0,8.9,0,17.8,0,26.7,8.9,0,17.8,0,26.6,0,0,8.8,0,17.7,0,26.5-14.8,0-29.5,0-44.3,0,0-2.8,0-5.7,0-8.5-3-.1-6-.3-9-.5,0-20.7,0-41.4,0-62,3,0,5.9,0,8.9,0,0-2.8,0-5.7,0-8.5h0Z"/>
  <path d="M186.2,552c8.8-.7,17.7.5,26.5,0,0,5.8,0,11.7,0,17.6,2.9,0,5.9,0,8.8,0,0-2.9,0-5.8,0-8.7,3-.2,6-.3,9-.3,0-3,0-5.9,0-8.9,8.9,0,17.7.1,26.6.3,0,8.8,0,17.7,0,26.5-3,0-5.9,0-8.9,0,0,3,0,5.9,0,8.9-3,0-5.9,0-8.9,0,0,3,0,6,0,8.9,3,0,6,0,9,0,0,3,0,5.9,0,8.9,2.9,0,5.9,0,8.8,0,0,8.8,0,17.6,0,26.5-8.9,0-17.8,0-26.6,0,0-2.9,0-5.7,0-8.6-3,0-6-.2-9-.4,0-2.9,0-5.7,0-8.6-2.9,0-5.9,0-8.8,0,0,5.9,0,11.7,0,17.6-8.9,0-17.7,0-26.6,0,0-26.6,0-53.1,0-79.7h0Z"/>
  <path d="M303.5,552.1c2,0,4,0,6,0,.1,26.5,0,53.1,0,79.6-2,0-4,0-5.9,0-.1-26.5,0-53.1,0-79.6Z"/>
  <path d="M436,552.3c9.4,0,18.7,0,28.1,0-.9,9.7-.6,19.4-1,29.1-.8,16.7-.9,33.4-1.6,50.2-5.4,0-10.8,0-16.1,0,.2-4.6.4-9.2.4-13.9-7.7.1-15.4-.3-23.1.4-2,4.5-3.9,9-6,13.4-5.4,0-10.8,0-16.1,0,11.9-26.4,23.8-52.7,35.5-79.2h0ZM444.6,568.5c-5.3,11.7-10.4,23.5-15.7,35.2,5.8,0,11.6,0,17.5,0,.7-12.8,1.1-25.6,1.7-38.4-1.2,1-2.9,1.5-3.5,3.1h0Z"/>
  <path d="M482.4,552.3c5.4,0,10.8,0,16.1,0-4.2,18.2-8.6,36.3-12.6,54.5-.6,3.7-1.9,9.3,2.5,11.2,5.1,1.6,11.4,2,15.9-1.4,4.2-3.8,5-9.8,6.3-15,3.6-16.4,7.9-32.7,11.2-49.2,5.4-.1,10.9,0,16.3,0-4.1,17.6-8.1,35.2-12.2,52.7-2.1,8.6-5.5,17.8-13.1,23-8.8,6-20.3,6.2-30.3,3.7-5.6-1.3-11-5.1-12.6-10.9-1.6-6.6-.3-13.5,1.1-20.1,3.8-16.1,7.5-32.3,11.2-48.4h0Z"/>
  <path d="M549,552.3c9.6,0,19.2,0,28.9,0,5.7,0,11.9,1.4,15.8,5.7,4.3,5.1,4.2,12.5,2.7,18.7-1.6,6.2-6.8,10.6-11.9,14,2.8,2.1,5.9,4.5,6.7,8.1,1.5,7.7.2,16.3-5,22.5-5.5,7-14.7,10.2-23.4,10.2-10.7,0-21.3,0-32,0,6-26.4,12.2-52.8,18.2-79.2h0ZM561.8,566.1c-1.3,6.3-2.9,12.6-4.2,19,4.9,0,10,.5,14.9-.5,5.5-1.3,8.9-7.2,8.2-12.7.2-2.9-2-5.4-4.8-5.6-4.7-.4-9.4-.1-14,0ZM550,617.7c5.6-.1,11.3.4,16.9-.3,5.6-1.1,8.6-7.3,8.4-12.7.3-3.1-2.3-6-5.3-6.2-5.1-.5-10.3-.1-15.4-.2-1.5,6.5-3,12.9-4.5,19.3h0Z"/>
  <path d="M612.3,552.2c15.5,0,31,0,46.4,0-1,4.7-2.1,9.4-3.2,14-10.2,0-20.4-.2-30.6,0-1.1,6.3-2.8,12.5-4,18.7,7.9,0,15.9,0,23.8,0-.9,4.7-2,9.3-3.3,13.9-8,0-15.9,0-23.8,0-1.4,6.2-2.8,12.3-4.3,18.4,10.2,0,20.3,0,30.5,0-1,4.7-2.2,9.3-3.1,14-15.6.1-31.2,0-46.8,0,6.1-26.4,12.1-52.8,18.2-79.3h0Z"/>
  <path d="M667.3,552.2c8.8,0,17.7-.1,26.5.1,6.5.4,13.6,2.4,17.4,8.1,4,6,3.6,13.6,3,20.5-1.2,10.2-8,19.2-17.3,23.5,2.2,9,4.2,18.1,6.4,27.1-5.4,0-10.7,0-16.1,0-1.8-8.4-3.5-16.8-5.3-25.1-3.7,0-7.5,0-11.2,0-1.8,8.4-3.8,16.8-5.8,25.1-5.4,0-10.7,0-16.1,0,6.1-26.4,12.1-52.9,18.3-79.3h0ZM680.3,566c-2.1,8.8-4.2,17.7-6.2,26.5,5.8-.3,12.2,1.4,17.4-2,5-3.8,7.3-10.6,6.6-16.7-.4-2.9-1.4-6.5-4.7-7.3-4.3-.9-8.7-.4-13.1-.5h0Z"/>
</svg>