<?xml version="1.0" encoding="UTF-8"?>
<!-- Generator: Adobe Illustrator 26.0.0, SVG Export Plug-In . SVG Version: 6.00 Build 0)  -->
<svg xmlns="http://www.w3.org/2000/svg" xmlns:xlink="http://www.w3.org/1999/xlink" version="1.1" id="Livello_1" x="0px" y="0px" viewBox="0 0 100 139.4" style="enable-background:new 0 0 100 139.4;" xml:space="preserve">
<style type="text/css">
	.st0{clip-path:url(#SVGID_00000056399700990026029250000011547385144234375845_);fill:#FFFFFF;}
	
		.st1{clip-path:url(#SVGID_00000147905598201277386090000013727218426664901291_);fill:url(#SVGID_00000039849840711906011110000007284503780938615723_);}
	.st2{fill:#FFFFFF;}
	.st3{clip-path:url(#SVGID_00000177446810693460303100000015618217802424005266_);fill:#FFFFFF;}
</style>
<g>
	<g>
		<defs>
			<rect id="SVGID_1_" x="2" y="3.2" width="96" height="133.7"></rect>
		</defs>
		<clipPath id="SVGID_00000114051208408030177390000005795030705046565520_">
			<use href="#SVGID_1_" style="overflow:visible;"></use>
		</clipPath>
		<path style="clip-path:url(#SVGID_00000114051208408030177390000005795030705046565520_);fill:#FFFFFF;" d="M33.4,125.1h-9.9    c-0.2,0-0.4-0.2-0.4-0.4v-10.8c0-0.2,0.2-0.4,0.4-0.4h9.9c0.2,0,0.4,0.2,0.4,0.4v10.8C33.9,125,33.7,125.1,33.4,125.1"></path>
		<path style="clip-path:url(#SVGID_00000114051208408030177390000005795030705046565520_);fill:#FFFFFF;" d="M54.5,44.2    c0-8.5-7-15.3-15.6-15.3c-0.3,0-19,0-19,0v30.9c0.3,0.2,0.6,0.5,0.8,0.7c2.2,2.4,2.3,6.4,0.4,8.9c-0.4,0.5-0.8,1-1.2,1.4v5.8    c0.2-0.1,0.4-0.2,0.6-0.4c0.1-0.1,0.3-0.2,0.4-0.3c0.1-0.1,0.4-0.3,1.4-1.1c1.9-1.5,4.2-3.3,6.8-3.9c0.8-0.2,1.2-0.3,1.7-0.3v-33    l5.6,0c4.1,0,7.2,3,7.2,6.8c0,3.8-3.3,6.8-7.4,6.8l-2.6,0v12.4l3.1,4.8c0.3-0.3,0.6-0.5,0.9-0.8l0.1-0.1l0.1-0.1    c2.4-2,5-2.9,8.2-2.9c0.1-0.1,0.1-0.1,0.2-0.2l-3.8-5.4C49.4,57.4,54.5,51.4,54.5,44.2"></path>
		<path style="clip-path:url(#SVGID_00000114051208408030177390000005795030705046565520_);fill:#FFFFFF;" d="M76.1,28.9H58.4v29.4    c0.3-0.2,0.6-0.4,0.9-0.6c0.6-0.4,1.3-0.8,2.1-1.2l0.1-0.1l0.1-0.1c1.3-0.6,2.9-0.9,4.5-0.9c1.2,0,2.3,0.2,3.3,0.5V37.8h6.9    c3,0,5.5,2.8,5.5,5.8s-2.5,5.5-5.5,5.5h-3.6v8.4c0.3,0.2,0.6,0.4,0.9,0.6l0.1,0.1l0.3,0.2h5.3c3.7,0,6.5,3,6.5,6.7    c0,1.3-0.3,2.4-0.9,3.4c1.5,1.9,3.5,4.3,4.6,6.2l0,0.1c0.5,0.9,0.9,1.9,1.2,3c3.8-2.7,6.3-7,6.3-11.8c0-5.9-2.1-10.1-9.1-13.4    c2.8-2.6,4.6-6.2,4.6-10.1c0-3.5-1.4-6.8-3.7-9.3C86.4,30.4,82,28.9,76.1,28.9"></path>
		<path style="clip-path:url(#SVGID_00000114051208408030177390000005795030705046565520_);fill:#FFFFFF;" d="M54.9,99    c0.2,0.3,0.4,0.7,0.6,1.1c0.3,0.7,0.6,1.2,0.9,1.3c0.1,0,0.3,0.1,0.4,0.1c0.7,0,1.6-0.4,2.3-0.9c0.4-0.3,0.3-0.5,0.1-0.8    c-0.1-0.1-0.1-0.2-0.2-0.3c-0.2-0.4-0.3-0.7-0.4-1.1c-0.2-0.7-0.4-1.2-1.1-1.1c-1,0.1-2,0.2-3.1,0.2c0,0-0.4,0-0.5,0.2    c-0.1,0.3,0.2,0.5,0.5,0.8C54.6,98.7,54.8,98.9,54.9,99"></path>
		<path style="clip-path:url(#SVGID_00000114051208408030177390000005795030705046565520_);fill:#FFFFFF;" d="M4.4,102.4    c0,0-0.1,0-0.1,0c-0.6,0.2-1.3,1-1.3,1.4c-0.1,2-0.2,2.2-0.7,2.8c-0.2,0.2-0.3,0.6-0.1,0.7c0.1,0.1,2.1,0.8,2.3,0.8l0,0    c0.2-0.1,0.3-0.5,0.7-1.9c0.2-0.7,0.5-1.6,0.7-2.3c0,0,0-0.1-0.2-0.4C5.6,103.3,4.8,102.4,4.4,102.4"></path>
		<path style="clip-path:url(#SVGID_00000114051208408030177390000005795030705046565520_);fill:#FFFFFF;" d="M97.7,99.2    c-0.6-0.3-1.2-0.6-1.2-0.6c-1.4-0.8-2.2-2.2-3-3.5c-0.3-0.5-0.6-1.1-1-1.5c-0.2-0.3-0.6-0.7-1-1C91.3,92.3,91,92,91,91.9    c-1.3-3.5-2.7-7.7-3-12.3c-0.1-0.7-0.5-2.3-1.1-3.3c-1.8-3-6.2-8.1-6.5-8.4c-0.2-0.2-0.3-0.3-0.5-0.5l-0.1-0.1l-7.9-6.6    c-1.6-1.1-2.1-1.3-3.2-1.7c-0.7-0.3-1.6-0.4-2.5-0.4c-1.1,0-2.2,0.2-3.2,0.6c-0.6,0.3-1.2,0.7-1.8,1.1c-1,0.6-2.1,1.3-3.2,1.7    c-0.9,0.4-1.8,0.7-2.8,1c-1.8,0.6-3.7,1.1-5.1,2.5c-0.4,0.4-0.8,0.7-1.1,1c-1.4,1.3-1.5,1.4-2.6,1.4c-2.6,0-4.4,0.6-6.3,2.2    c-1.5,1.4-3,2.6-4.7,3.3c-0.8,0.3-1.6,0.4-2.6,0.5C31.4,74,31.2,74,30,74.3c-1.9,0.4-3.9,2-5.6,3.3c-0.6,0.4-1.3,1-1.6,1.2    c-0.2,0.1-0.4,0.3-0.6,0.4c-2.1,1.2-4.1,2.4-6.6,2.4c-0.1,0-0.1,0-0.2,0c-1.9-0.1-3.6-1.4-4.2-3.2c-0.5-1.9,0-3.9,1.6-5.5    c0.7-0.7,1.6-1.4,2.4-2.1c1.3-1.1,2.5-2.1,3.4-3.3c1-1.3,0.9-3.6-0.2-4.8c-1.1-1.2-3.6-1.8-4.5-2l-0.2,0c-0.1,0-0.3,0-0.3-0.1    c-0.6-0.1-1.2-0.2-1.7-0.3c-1.5-0.4-2.6-1.5-3.9-2.2C7.1,58.8,7,59.6,7,60.5c0.3,2,1.9,4,3.7,4.8c0.1,0,0.2,0.1,0.2,0.1    c0.6,0.2,1.2,0.3,1.7,0.3c0.1,0,0.2,0,0.4,0c0.1,0,0.2,0,0.4,0c0.4,0,0.8,0,1.2,0.1c0.4,0.1,0.7,0.4,0.8,0.9    c0,0.3-0.1,0.5-0.4,0.7c-0.3,0.3-0.6,0.5-0.9,0.8c-1.6,1.3-3.2,2.6-4.5,4.2c-1.8,1.9-1.8,5.2-1,7.3c1,2.8,3.9,4.4,6.3,4.7    c0.4,0.1,0.9,0.1,1.3,0.1c1.4,0,2.8-0.3,4.1-0.7c0,0,0.1,0,0.1,0c0.1,0,0.2,0,0.2,0.3c0,0.6,0.1,1.2,0.1,1.9c0,1,0.1,2,0.2,2.4    c0.2,0.9,0.6,2,0.9,2.8c0.1,0.3,0.2,0.6,0.3,0.7c0.1,0.4,0,0.9-0.3,1.1c-1,0.9-3,1.6-3.4,1.7c-0.6,0.1-1.2,0.1-1.7,0.1    c-0.2,0-0.4,0-0.5,0c-0.2,0-0.4,0.1-0.6,0.3c-0.3,0.3-0.6,1.1-1,2c-0.2,0.6-0.4,1.1-0.7,1.6c-0.6,1-1.7,1.7-2.7,2.3    c-0.3,0.1-0.5,0.3-0.8,0.4l0,0c-0.4,0.7-0.8,1.3-1.4,1.8c-0.4,0.4-1,0.5-1.5,0.5l0,0l0,0c-0.8,0.9-1.1,2.1-1.3,3.3    c0,0.2-0.1,0.4-0.1,0.5l0,0.2l0.1,0c0.4,0,0.8,0.1,1.3,0.2c0.6,0.1,1.2,0.3,1.8,0.3c0.6,0,1.1-0.1,1.5-0.4    c0.8-0.4,1.2-1.1,1.6-1.7c0.3-0.4,0.5-0.9,0.9-1.3c0.2-0.2,0.5-0.3,0.8-0.3c0.3,0,0.6,0.1,0.9,0.2c0.3,0.1,0.6,0.2,0.9,0.2    c1.4,0.1,2.7-0.8,3.4-1.3c0.3-0.2,0.6-0.5,0.8-0.8c0.4-0.4,0.9-0.8,1.3-1.1c0.6-0.3,1.3-0.4,2.1-0.4c1.1,0,2.2,0.2,3.1,0.4    c0.5,0.1,1,0.2,1.5,0.2c0.9,0,1.7-0.2,2.3-0.6c0.8-0.4,1.6-0.9,2.2-1.2c0.4-0.2,0.7-0.4,1-0.5c1.1-0.6,2.1-2.3,2.4-3    c0.3-0.7,0.9-2.1,0.9-2.1l0-0.1l-1.3-1l-0.1,0.1c0,0-0.9,1.4-1.4,2.1c-2.3,3.2-6.1,3.6-9.1,3.6c-0.2,0-0.4,0-0.6,0    c-3.8,0-6.8,1.3-9,3.7c-0.1,0.1-0.3,0.1-0.4,0c0-0.1-0.1-0.2,0-0.3c0.1-0.3,0.1-0.3,0.2-0.6c2.4-3.3,6.4-3.8,9.6-3.9    c2.4-0.2,4.1-0.6,5.6-1.3c1.9-1,3.4-3.2,3.9-4.9c0.4-1.1,0.6-2.3,0.7-3.5c0.1-0.9,0.3-1.9,0.5-2.8c0-0.1,0.2-0.2,0.3-0.2    c0,0,0.1,0,0.1,0c0.1,0,0.4,0.1,0.4,0.3c-0.3,1.8-0.8,4.3,0.1,6.4c0.4,0.8,1.2,1.2,2.5,1.2c0.8,0,1.7-0.1,2.5-0.3    c0.7-0.1,1.3-0.2,1.8-0.2c0.2,0,0.5,0,0.7,0c1.1,0,2.1,0.2,3.1,0.4c0.9,0.2,1.7,0.4,2.7,0.4c0.2,0,0.3,0,0.5,0    c0.3,0,0.6,0.1,1,0.1c0.8,0,1.3-0.2,1.7-0.5c0.3-0.2,0.2-0.6,0.1-1l0-0.1c0-0.1,0-0.2-0.1-0.2c-0.2-0.6-0.4-1.4,0-1.8    c0.1,0,0.2-0.1,0.2-0.1c0.1,0,0.2,0,0.2,0.1c0,0.2,0.1,0.3,0.1,0.5c0.2,0.7,0.4,1.4,0.8,2c0.9,1.2,2.4,2.3,4.1,3.2    c1.1,0.8,2.5,2.1,2.6,4c0,0.8-0.8,1.4-1.4,1.8c-1,0.5-2.4,1.1-3.4,1c-0.6,0-1.1-0.4-1.1-0.4c-0.9-0.9-0.8-1.1-1.4-2.2    c-0.3-0.5-0.7-1.1-1.1-1.6c-0.6-0.6-1.3-0.9-2.3-0.8c-0.9,0.1-1.8,0.3-2.9,0.5c-0.2,0-0.4,0.2-0.5,0.4c-0.1,0.2-0.1,0.5,0.1,0.7    c0.5,1,1.1,1.8,1.6,2.8l0.2,0.4c0.1,0.2,0.4,0.3,0.6,0.3c0.1,0,0.3,0,0.4,0c0.2,0,0.3,0,0.5,0c0.5,0,0.8,0.1,1,0.4    c0.2,0.3,0.3,0.5,0.5,0.8c0.4,0.7,0.7,1.3,1.4,1.8c0.6,0.5,1.4,0.8,2.2,0.8c0.4,0,0.7-0.1,1.1-0.2c2.5-0.8,4.9-1.6,7.2-2.8l0.8,0    c0.2,0,0.3,0,0.5,0c0.8-0.1,1.6-0.1,2.2-0.7c0.7-1.1,1.4-2.1,1.9-3.3c0.5-1,0.5-2,0-2.8c-1.5-2.3-1.7-3-2.3-4.6l0,0l0,0    c-0.2-0.1-0.3-0.1-0.5-0.2c-0.4-0.1-0.7-0.3-1.2-0.3l-0.1,0c-0.5,0-0.8,0.2-1,0.5l0,0l2.7,5.2c0.2,0.4,0.4,0.8,0.3,1.4    c-0.1,0.6-1.4,2.7-1.8,2.9c-0.1,0.1-0.2,0.1-0.2,0.1c0,0-0.2,0-0.1-0.3c0.2-0.8,0.6-2.9,0.5-3.5c-0.1-0.7-2.3-4.4-2.4-4.6l0-0.1    c-0.3-0.6-0.7-1.1-0.7-1.8c0-0.3,0.3-0.5,0.5-0.6c0.4-0.1,0.8-0.2,1.2-0.3c0.9-0.2,1.9-0.4,2.3-1c1.1-1.6,1.7-3.3,2.1-5.6    c0-0.1,0.1-0.3,0.2-0.3c0.1,0,0.2,0,0.2,0.2c0.4,2.2-0.1,4.5-1.5,6.4c-0.1,0.1-0.1,0.3-0.1,0.5c0,0.2,0.2,0.3,0.2,0.3    c0.5,0.3,2.4,0.1,3.7-0.6c1,0,2-0.2,2.9-0.3c0.3-0.1,0.6-0.1,0.9-0.2c0.1,0.1,0.2,0.1,0.2,0.2c-0.8,0.9-1.3,1.9-1.5,3.2    c-0.2,0.2-0.5,0.4-0.7,0.7c-0.9,0.8-1.8,1.7-1.8,2.8c0,0,0,0.4,0.4,0.4c0.1,0,0.3-0.1,0.4-0.1c0.2-0.1,0.3-0.1,0.5-0.1    c0.1,0,0.2,0.1,0.3,0.3l-1,1.4c-0.4,0.6-0.2,1.2-0.1,1.9c0.1,0.3,0.1,0.6,0.2,0.9c0.2,0.7,1.1,1.1,1.8,1.1    c1.3-0.1,2.5-0.5,3.6-0.9c0.2-0.1,0.4-0.1,0.6-0.2c1.2-0.5,2.9-0.6,4.9-0.3c1.6-0.1,2.8-1.1,3.9-2.2c0.5,0,1,0.3,1.5,0.9    c1.7,1.8,3.8,2.7,6.4,2.7c0.1,0,0.2,0,0.3,0l0.3,0c0.3-0.1,0.3-0.2,0.4-0.4c0-0.2-0.1-0.4-0.4-0.5l-1.5-0.8    c-1.2-0.7-2.4-1.6-2.8-2.8c-0.4-1.3-1.1-2.5-1.6-3.4c-0.1-0.2-0.2-0.3-0.3-0.5c-0.2-0.3-0.4-0.6-0.6-0.9l0,0    c1.6,0.6,2.5,1.8,3.6,3.7c0.8,1.5,2.9,3,4.9,3c0.3,0,0.5,0,0.8-0.1c0.2,0,0.4-0.2,0.4-0.4C98,99.5,97.9,99.3,97.7,99.2 M69.3,75.6    c0,0.2-0.1,0.3-0.2,0.3c0,0-0.2,0-0.2-0.2c-0.4-2.1-0.7-3.2-1.1-4.1c-0.2-0.3-0.3-0.6-0.5-0.8c-0.4-0.5-0.7-0.9-0.3-1.5    c0.1-0.2,0.4-0.3,0.6-0.3c0.1,0,0.3,0,0.4,0.1c0.4,0.2,0.8,0.7,1.2,1.5C70.1,72.7,69.3,75.6,69.3,75.6 M82.6,96.7    c0,0-0.1,0.6-0.3,0.9C82,97.8,80.9,98,80.4,98c-0.5,0-0.7-0.1-0.8-0.3c-0.1-0.2,0.1-0.5,0.1-0.5c0.1-0.1,0.7-1.4,1.9-1.8    c0,0,0.4-0.1,0.8,0C82.8,95.6,82.6,96.6,82.6,96.7 M86.2,88.4c-0.1,0.5-0.2,0.7-0.3,0.8c-0.1,0.1-0.2,0.4-0.5,0.4    c-0.4,0-0.4-0.5-0.4-0.5c0,0,0-1.3-0.3-1.8c-0.3-0.6-1.6-2.3-2.3-2.2c-0.2,0-0.7,0.3-1.1,0.8c-0.4,0.6-0.4,0.6-0.6,0.7    c-0.1,0.1-0.3,0-0.4-0.3c-0.1-0.3-0.1-0.6,0-1.3c0.2-0.7,0.3-0.8,0.5-1.3c0,0,0.4-0.9,0.5-1.1c0.4-0.6,0.9-0.6,0.9-0.6    c0.1,0,0.6-0.1,1.1,0.6c0.6,0.7,0.5,0.7,0.6,0.9c0.2,0.3,0.3,0.5,0.8,1c0.5,0.5,1,1.5,1.2,2.2C86.3,87.4,86.3,87.9,86.2,88.4"></path>
		<path style="clip-path:url(#SVGID_00000114051208408030177390000005795030705046565520_);fill:#FFFFFF;" d="M6.5,102.4    c0.1,0.1,0.4,0.3,0.7,0.3c0.2,0,0.4-0.1,0.6-0.2c1.1-0.6,2.2-2.6,2.3-2.7c0.1-0.3-0.3-0.6-0.7-1l-0.1,0c-0.2-0.2-0.6-0.1-0.8,0    C8.3,98.9,8.2,99,8,99.1c-0.6,0.4-1.2,0.8-1.8,1.3c-0.2,0.2-0.3,0.5-0.4,0.8c0,0.2,0,0.4,0.1,0.5C6,101.8,6.4,102.3,6.5,102.4"></path>
		<polygon style="clip-path:url(#SVGID_00000114051208408030177390000005795030705046565520_);fill:#FFFFFF;" points="47.7,22.7     51.8,3.5 46.9,3.5 42.8,22.7   "></polygon>
		<path style="clip-path:url(#SVGID_00000114051208408030177390000005795030705046565520_);fill:#FFFFFF;" d="M70.1,22.7l1-2.9h6.3    l0.6,2.9h4.6l-4-19.1h-4.2c-0.9,0-1.7,0.6-2.1,1.4L65,22.7H70.1z M75.2,8.7l1.5,7.2h-4.1L75.2,8.7z"></path>
		<path style="clip-path:url(#SVGID_00000114051208408030177390000005795030705046565520_);fill:#FFFFFF;" d="M57.1,19    c-2.5,0-3.9-0.7-5.1-1.2l-0.9,4.2c1.2,0.5,3.3,1,5.5,1c5.2,0,8.6-2.6,8.6-6.5c0-5-7-5.3-6.9-7.6c0-0.7,0.7-1.4,2.1-1.6    c0.7-0.1,2.7-0.2,4.9,0.9L66.1,4c-1.2-0.4-2.7-0.8-4.6-0.8c-4.9,0-8.3,2.6-8.4,6.3c0,2.8,2.5,4.3,4.3,5.2c1.9,0.9,2.6,1.5,2.6,2.4    C60,18.4,58.5,18.9,57.1,19"></path>
		<path style="clip-path:url(#SVGID_00000114051208408030177390000005795030705046565520_);fill:#FFFFFF;" d="M27.6,7.4l3.9,15.3    h5.2l8-19.1h-5.2l-5.1,13L32.3,5.5c-0.2-1.2-1.2-1.9-2.3-1.9h-8.4l-0.1,0.6c1.7,0.4,3.7,1,4.9,1.6C27.1,6.1,27.3,6.5,27.6,7.4"></path>
		<path style="clip-path:url(#SVGID_00000114051208408030177390000005795030705046565520_);fill:#FFFFFF;" d="M48.4,120.8l-0.6-0.4    c-0.1-0.1-0.3,0-0.4,0.1c-0.4,0.6-1.1,1-1.8,0.9c-1.4,0-2.2-1.1-2.2-2.6c0-1.5,0.8-2.6,2.2-2.6c0.7,0,1.4,0.3,1.8,0.9    c0.1,0.1,0.2,0.1,0.4,0.1l0.6-0.4c0,0,0,0,0,0c0.1-0.1,0.1-0.3,0.1-0.4c-0.7-0.9-1.7-1.5-2.9-1.4c-2.1,0-3.6,1.6-3.6,3.9    c0,2.3,1.5,3.9,3.6,3.9c1.2,0,2.2-0.5,2.9-1.5c0,0,0,0,0,0C48.6,121.1,48.5,120.9,48.4,120.8"></path>
		<path style="clip-path:url(#SVGID_00000114051208408030177390000005795030705046565520_);fill:#FFFFFF;" d="M51.6,117    c-0.7,0-1.4,0.2-2.1,0.5c-0.1,0.1-0.2,0.2-0.1,0.4l0.2,0.5l0,0c0.1,0.1,0.2,0.2,0.4,0.1c0.5-0.2,1-0.4,1.5-0.4c0.5,0,1,0.1,1,0.6    c0,0.5-0.7,0.6-1.5,0.7c-0.7,0.1-1.9,0.3-1.9,1.7c0,1.1,0.8,1.7,1.9,1.7c0.8,0,1.2-0.3,1.6-0.7v0.3c0,0.1,0.1,0.3,0.3,0.3h0.7    c0.1,0,0.3-0.1,0.3-0.3v-3.5C53.8,117.5,52.9,117,51.6,117 M52.4,120.5c0,0.8-0.6,1.2-1.2,1.2c-0.5,0-0.9-0.2-0.9-0.7    c0-0.5,0.4-0.7,0.9-0.8c0.5-0.1,1-0.2,1.2-0.3V120.5z"></path>
		<path style="clip-path:url(#SVGID_00000114051208408030177390000005795030705046565520_);fill:#FFFFFF;" d="M57.1,119.2    c-0.6-0.1-1.2-0.2-1.2-0.6c0-0.4,0.4-0.5,0.9-0.5c0.5,0,1,0.2,1.4,0.5c0.1,0.1,0.3,0.1,0.4,0l0.3-0.4c0,0,0,0,0,0    c0.1-0.1,0.1-0.3,0-0.4c-0.6-0.5-1.3-0.7-2.1-0.7c-1.2,0-2.2,0.5-2.2,1.7c0,1.2,1,1.5,2,1.7c1,0.2,1.4,0.3,1.4,0.7    c0,0.5-0.4,0.6-1,0.6c-0.6,0-1.1-0.2-1.6-0.5c-0.1-0.1-0.3-0.1-0.4,0l-0.4,0.4c0,0,0,0,0,0c-0.1,0.1-0.1,0.3,0,0.4    c0.6,0.5,1.4,0.7,2.2,0.7c1.5,0,2.4-0.7,2.4-1.9C59.2,119.8,58.4,119.4,57.1,119.2"></path>
		<path style="clip-path:url(#SVGID_00000114051208408030177390000005795030705046565520_);fill:#FFFFFF;" d="M63,117    c-0.7,0-1.3,0.3-1.7,0.8v-2.4c0-0.1-0.1-0.3-0.3-0.3h-0.8c-0.2,0-0.3,0.1-0.3,0.3v6.9c0,0.1,0.1,0.3,0.3,0.3h0.8    c0.2,0,0.3-0.1,0.3-0.3v-2.8c0-0.8,0.5-1.3,1.3-1.3c0.8,0,0.9,0.5,0.9,1.1v3.1c0,0.1,0.1,0.3,0.3,0.3h0.8c0.2,0,0.3-0.1,0.3-0.3    V119C64.8,117.8,64.2,117,63,117"></path>
		<path style="clip-path:url(#SVGID_00000114051208408030177390000005795030705046565520_);fill:#FFFFFF;" d="M72.4,115.3    c0-0.1-0.1-0.2-0.3-0.2h-1.3c-0.1,0-0.2,0.1-0.3,0.2l-2.6,6.9c0,0,0,0.1,0,0.1c0,0.2,0.1,0.3,0.3,0.3h0.9c0.1,0,0.2-0.1,0.3-0.2    l0.6-1.7h2.8l0.6,1.7c0,0.1,0.1,0.2,0.3,0.2h1c0,0,0.1,0,0.1,0c0.1-0.1,0.2-0.2,0.2-0.3L72.4,115.3z M70.4,119.6l1.1-3.2l1.1,3.2    H70.4z"></path>
		<path style="clip-path:url(#SVGID_00000114051208408030177390000005795030705046565520_);fill:#FFFFFF;" d="M78.6,117    c-0.7,0-1.3,0.3-1.7,0.8v-0.4c0,0,0,0,0,0c0-0.1-0.1-0.3-0.3-0.3h-0.8c-0.1,0-0.3,0.1-0.3,0.3v6.8c0,0.2,0.1,0.3,0.3,0.3h0.8    c0.2,0,0.3-0.1,0.3-0.3v-2.3c0.4,0.5,1,0.9,1.7,0.8c1.5,0,2.5-1.3,2.5-2.9C81.1,118.2,80.1,117,78.6,117 M78.3,121.6    c-0.9,0-1.4-0.8-1.4-1.7c0-1,0.5-1.7,1.4-1.7s1.4,0.8,1.4,1.7C79.7,120.8,79.2,121.6,78.3,121.6"></path>
		<path style="clip-path:url(#SVGID_00000114051208408030177390000005795030705046565520_);fill:#FFFFFF;" d="M84.9,117    c-0.7,0-1.3,0.3-1.7,0.8v-0.4c0,0,0,0,0,0c0-0.1-0.1-0.3-0.3-0.3h-0.8h0c-0.1,0-0.3,0.1-0.3,0.3v6.8c0,0.2,0.1,0.3,0.3,0.3H83    c0.1,0,0.3-0.1,0.3-0.3v-2.3c0.4,0.5,1,0.9,1.7,0.8c1.5,0,2.5-1.3,2.5-2.9C87.4,118.2,86.4,117,84.9,117 M84.6,121.6    c-0.9,0-1.4-0.8-1.4-1.7c0-1,0.5-1.7,1.4-1.7c0.9,0,1.4,0.8,1.4,1.7C86,120.8,85.6,121.6,84.6,121.6"></path>
	</g>
	<g>
		<defs>
			<path id="SVGID_00000101070659828435178770000012079130787350763941_" d="M28.3,121.4c0.8,0,1.3-0.3,1.3-0.9s-0.5-0.7-1.6-1.1     c-1.1-0.4-2.1-0.9-2.1-2.2c0-1.5,1.2-2.2,2.7-2.3l0.2-0.7c0-0.1,0.2-0.2,0.3-0.2h1.1c0,0,0,0,0.1,0c0.2,0,0.3,0.2,0.2,0.3     l-0.2,0.8c0.6,0.2,1.1,0.5,1.5,0.8c0,0,0,0,0,0c0.1,0.1,0.1,0.3,0,0.4l-0.6,0.6c-0.1,0.1-0.3,0.1-0.4,0c-0.6-0.5-1.2-0.7-2-0.7     c-0.6,0-1.2,0.2-1.2,0.7s0.6,0.7,1.4,1c1.3,0.4,2.4,1,2.4,2.2c0,1.4-1.1,2.3-2.8,2.4l-0.2,0.7c0,0.1-0.2,0.2-0.3,0.2h-1.1     c0,0,0,0-0.1,0c-0.2,0-0.3-0.2-0.2-0.4l0.2-0.8c-0.7-0.2-1.3-0.5-1.8-1c0,0,0,0,0,0c-0.1-0.1-0.1-0.3,0-0.4l0.6-0.6     c0.1-0.1,0.3-0.1,0.4,0C26.8,121.1,27.5,121.4,28.3,121.4C28.3,121.4,28.3,121.4,28.3,121.4 M26.3,111.6c-1.5,0-2.2,0-3,0.2     c-0.9,0.3-1.6,1-1.9,1.9c-0.3,0.8-0.3,1.5-0.3,3v4.4c0,1.5,0,2.2,0.2,3c0.3,0.9,1,1.6,1.9,1.9c0.8,0.3,1.5,0.3,3,0.3h4.5     c1.5,0,2.2,0,3-0.3c0.9-0.3,1.6-1,1.9-1.9c0.3-0.8,0.3-1.5,0.3-3v-4.4c0-1.5,0-2.2-0.3-3c-0.3-0.9-1-1.6-1.9-1.9     c-0.8-0.3-1.5-0.3-3-0.3H26.3z"></path>
		</defs>
		<clipPath id="SVGID_00000078743563848791898870000012632410508837650065_">
			<use href="#SVGID_00000101070659828435178770000012079130787350763941_" style="overflow:visible;"></use>
		</clipPath>
		
			<linearGradient id="SVGID_00000118390582960247626850000005483716747684560287_" gradientUnits="userSpaceOnUse" x1="-894.3453" y1="612.978" x2="-894.0449" y2="612.978" gradientTransform="matrix(48.8827 0 0 -48.8827 43739.168 30082.8984)">
			<stop offset="0" style="stop-color:#00B03C"></stop>
			<stop offset="0.5687" style="stop-color:#02B03C"></stop>
			<stop offset="0.814" style="stop-color:#09B13C"></stop>
			<stop offset="0.9969" style="stop-color:#16B33C"></stop>
			<stop offset="1" style="stop-color:#16B33C"></stop>
		</linearGradient>
		
			<rect x="21.2" y="111.6" style="clip-path:url(#SVGID_00000078743563848791898870000012632410508837650065_);fill:url(#SVGID_00000118390582960247626850000005483716747684560287_);" width="14.7" height="14.7"></rect>
	</g>
	<polygon class="st2" points="20.9,133 20.9,136.9 21.5,136.9 21.5,135.3 23.1,135.3 23.1,134.7 21.5,134.7 21.5,133.6 23.1,133.6    23.1,133  "></polygon>
	<g>
		<defs>
			<rect id="SVGID_00000003784773941681430170000004815561360624338824_" x="2" y="3.2" width="96" height="133.7"></rect>
		</defs>
		<clipPath id="SVGID_00000053531730676479784780000015678295912551449763_">
			<use href="#SVGID_00000003784773941681430170000004815561360624338824_" style="overflow:visible;"></use>
		</clipPath>
		<path style="clip-path:url(#SVGID_00000053531730676479784780000015678295912551449763_);fill:#FFFFFF;" d="M26.3,136.9    c-0.3,0-0.5,0-0.8-0.2c-0.2-0.1-0.5-0.2-0.6-0.4c-0.2-0.2-0.3-0.4-0.4-0.6c-0.1-0.2-0.2-0.5-0.2-0.8c0-0.3,0-0.5,0.2-0.8    c0.1-0.2,0.2-0.4,0.4-0.6c0.2-0.2,0.4-0.3,0.6-0.4c0.2-0.1,0.5-0.2,0.8-0.2c0.3,0,0.6,0.1,0.8,0.2c0.2,0.1,0.5,0.2,0.6,0.4    c0.2,0.2,0.3,0.4,0.4,0.6c0.1,0.2,0.1,0.5,0.1,0.8c0,0.3-0.1,0.5-0.1,0.8c-0.1,0.2-0.2,0.4-0.4,0.6c-0.2,0.2-0.4,0.3-0.6,0.4    C26.9,136.9,26.6,136.9,26.3,136.9 M26.3,136.4c0.2,0,0.4,0,0.5-0.1c0.2-0.1,0.3-0.2,0.4-0.3c0.1-0.1,0.2-0.3,0.3-0.5    c0.1-0.2,0.1-0.4,0.1-0.6c0-0.2,0-0.4-0.1-0.6c-0.1-0.2-0.2-0.3-0.3-0.4c-0.1-0.1-0.3-0.2-0.4-0.3c-0.2-0.1-0.4-0.1-0.5-0.1    c-0.2,0-0.4,0-0.6,0.1c-0.2,0.1-0.3,0.2-0.4,0.3c-0.1,0.1-0.2,0.3-0.3,0.4c-0.1,0.2-0.1,0.4-0.1,0.6c0,0.2,0,0.4,0.1,0.6    c0.1,0.2,0.2,0.3,0.3,0.5c0.1,0.1,0.3,0.2,0.4,0.3C26,136.3,26.1,136.4,26.3,136.4"></path>
		<path style="clip-path:url(#SVGID_00000053531730676479784780000015678295912551449763_);fill:#FFFFFF;" d="M29.9,133h1.2    c0.4,0,0.7,0.1,0.9,0.3c0.2,0.2,0.3,0.5,0.3,0.8c0,0.3-0.1,0.5-0.2,0.7c-0.1,0.2-0.3,0.3-0.6,0.4l1,1.6H32l-0.9-1.5h-0.5v1.5h-0.6    V133z M31.1,134.9c0.2,0,0.4-0.1,0.5-0.2c0.1-0.1,0.2-0.3,0.2-0.5c0-0.2-0.1-0.4-0.2-0.5c-0.1-0.1-0.3-0.2-0.5-0.2h-0.6v1.3H31.1z    "></path>
		<polygon style="clip-path:url(#SVGID_00000053531730676479784780000015678295912551449763_);fill:#FFFFFF;" points="37.9,133     37.9,136.9 37.4,136.9 37.4,133.9 36.3,136.9 35.8,136.9 34.7,133.9 34.7,136.9 34.1,136.9 34.1,133 34.9,133 36,136.1 37.1,133       "></polygon>
		<path style="clip-path:url(#SVGID_00000053531730676479784780000015678295912551449763_);fill:#FFFFFF;" d="M41.2,136.9    c-0.2,0-0.4,0-0.6-0.1c-0.2-0.1-0.3-0.2-0.5-0.3c-0.1-0.1-0.2-0.3-0.3-0.5c-0.1-0.2-0.1-0.4-0.1-0.6V133h0.6v2.3    c0,0.3,0.1,0.5,0.2,0.7c0.2,0.2,0.4,0.3,0.6,0.3c0.3,0,0.5-0.1,0.6-0.3c0.2-0.2,0.2-0.4,0.2-0.7V133h0.6v2.3c0,0.2,0,0.5-0.1,0.6    c-0.1,0.2-0.2,0.4-0.3,0.5c-0.1,0.1-0.3,0.2-0.5,0.3C41.6,136.9,41.4,136.9,41.2,136.9"></path>
		<polygon style="clip-path:url(#SVGID_00000053531730676479784780000015678295912551449763_);fill:#FFFFFF;" points="44.4,133     45,133 45,136.3 46.5,136.3 46.5,136.9 44.4,136.9   "></polygon>
		<path style="clip-path:url(#SVGID_00000053531730676479784780000015678295912551449763_);fill:#FFFFFF;" d="M50,136h-1.6l-0.3,0.9    h-0.6l1.4-3.8h0.6l1.4,3.8h-0.6L50,136z M48.6,135.5h1.3l-0.6-1.8L48.6,135.5z"></path>
		<path style="clip-path:url(#SVGID_00000053531730676479784780000015678295912551449763_);fill:#FFFFFF;" d="M56.5,136.9    c-0.3,0-0.5,0-0.8-0.2c-0.2-0.1-0.5-0.2-0.6-0.4c-0.2-0.2-0.3-0.4-0.4-0.6c-0.1-0.2-0.2-0.5-0.2-0.8c0-0.3,0-0.5,0.2-0.8    c0.1-0.2,0.2-0.4,0.4-0.6c0.2-0.2,0.4-0.3,0.6-0.4c0.2-0.1,0.5-0.2,0.8-0.2c0.3,0,0.6,0.1,0.8,0.2c0.2,0.1,0.5,0.2,0.6,0.4    c0.2,0.2,0.3,0.4,0.4,0.6c0.1,0.2,0.2,0.5,0.2,0.8c0,0.3-0.1,0.5-0.2,0.8c-0.1,0.2-0.2,0.4-0.4,0.6c-0.2,0.2-0.4,0.3-0.6,0.4    C57.1,136.9,56.8,136.9,56.5,136.9 M56.5,136.4c0.2,0,0.4,0,0.5-0.1c0.2-0.1,0.3-0.2,0.4-0.3c0.1-0.1,0.2-0.3,0.3-0.5    c0.1-0.2,0.1-0.4,0.1-0.6c0-0.2,0-0.4-0.1-0.6c-0.1-0.2-0.2-0.3-0.3-0.4c-0.1-0.1-0.3-0.2-0.4-0.3c-0.2-0.1-0.4-0.1-0.5-0.1    c-0.2,0-0.4,0-0.6,0.1c-0.2,0.1-0.3,0.2-0.4,0.3c-0.1,0.1-0.2,0.3-0.3,0.4c-0.1,0.2-0.1,0.4-0.1,0.6c0,0.2,0,0.4,0.1,0.6    c0.1,0.2,0.2,0.3,0.3,0.5c0.1,0.1,0.3,0.2,0.4,0.3C56.1,136.3,56.3,136.4,56.5,136.4"></path>
		<polygon style="clip-path:url(#SVGID_00000053531730676479784780000015678295912551449763_);fill:#FFFFFF;" points="63,133     63,136.9 62.4,136.9 60.7,134 60.7,136.9 60.1,136.9 60.1,133 60.7,133 62.4,135.9 62.4,133   "></polygon>
		<polygon style="clip-path:url(#SVGID_00000053531730676479784780000015678295912551449763_);fill:#FFFFFF;" points="64.8,133     67,133 67,133.6 65.4,133.6 65.4,134.6 67,134.6 67,135.1 65.4,135.1 65.4,136.3 67.1,136.3 67.1,136.9 64.8,136.9   "></polygon>
		<polygon style="clip-path:url(#SVGID_00000053531730676479784780000015678295912551449763_);fill:#FFFFFF;" points="71.7,133.6     70.7,133.6 70.7,133 73.5,133 73.5,133.6 72.3,133.6 72.3,136.9 71.7,136.9   "></polygon>
		<polygon style="clip-path:url(#SVGID_00000053531730676479784780000015678295912551449763_);fill:#FFFFFF;" points="74.9,133     77.2,133 77.2,133.6 75.5,133.6 75.5,134.6 77.1,134.6 77.1,135.1 75.5,135.1 75.5,136.3 77.3,136.3 77.3,136.9 74.9,136.9   "></polygon>
		<path style="clip-path:url(#SVGID_00000053531730676479784780000015678295912551449763_);fill:#FFFFFF;" d="M81,136h-1.6l-0.3,0.9    h-0.6l1.4-3.8h0.6l1.4,3.8h-0.6L81,136z M79.6,135.5h1.3l-0.6-1.8L79.6,135.5z"></path>
		<polygon style="clip-path:url(#SVGID_00000053531730676479784780000015678295912551449763_);fill:#FFFFFF;" points="87.2,133     87.2,136.9 86.7,136.9 86.7,133.9 85.6,136.9 85.1,136.9 84,133.9 84,136.9 83.4,136.9 83.4,133 84.2,133 85.3,136.1 86.4,133       "></polygon>
	</g>
</g>
</svg>
