<?xml version="1.0" encoding="UTF-8"?>
<svg id="Layer_1" xmlns="http://www.w3.org/2000/svg" version="1.1" viewBox="0 0 425.2012 96.115">
  <!-- Generator: Adobe Illustrator 29.3.0, SVG Export Plug-In . SVG Version: 2.1.0 Build 146)  -->
  <defs>
    <style>
      .st0 {
        fill: #1868db;
      }
    </style>
  </defs>
  <path d="M122.19,65.71h6.78v29.865h-6.78v-29.865ZM95.71,65.705v29.865h19.675v-5.405h-12.905v-24.46h-6.775.005ZM187.135,81.78l-14.465-16.415h-.905v30.225h6.535v-10.995c0-3.375-.215-5.06-.215-5.06,0,0,1.15,1.76,2.28,3.15l6.295,7.75h.95l6.295-7.75c1.13-1.39,2.28-3.15,2.28-3.15,0,0-.215,1.69-.215,5.06v10.995h6.535v-30.225h-.905l-14.465,16.415h0ZM225.035,77.665l-1.54-.66c-2.005-.85-3.785-1.805-3.785-3.655,0-1.495.85-2.47,2.655-2.47s3.365,1.135,4.09,2.605l5.075-3.025c-2.14-3.725-5.595-5.21-9.32-5.21-5.5,0-8.93,3.61-9.025,8.225-.105,5.135,3.55,7.45,7.995,9.34l1.54.66c2.815,1.23,4.14,2.165,4.085,4.03-.05,1.76-1.225,3.035-3.78,3.035-3.035,0-4.825-1.67-5.895-3.955l-5.365,3.07c1.455,3.365,5.475,6.46,11.22,6.46s10.38-3.01,10.575-8.55c.17-4.775-3.03-7.735-8.525-9.905M49.645,95.575h6.775v-29.865h-6.775v29.865ZM75.785,65.705h-6.775v29.865h19.675v-5.4h-12.905v-24.465h.005ZM164.315,95.53h-6.51l-1.945-4.78h-10.73l-1.945,4.78h-6.51l13.33-30.13h.975l13.33,30.13h.005,0ZM153.87,85.555l-2.57-6.56c-.49-1.23-.805-2.285-.805-2.285,0,0-.32,1.055-.805,2.285l-2.57,6.56h6.75ZM342.875,95.575h6.775v-29.865h-6.775v29.865ZM329.525,85.58l-.175.265c-1.91,2.92-4.085,4.16-7.27,4.16-4.955,0-8.55-3.92-8.55-9.325s3.515-9.24,8.55-9.24c2.945,0,5.375,1.31,6.835,3.68l.17.28,5.115-3.63-.16-.25c-2.645-4.12-6.56-6.12-11.96-6.12-8.76,0-15.37,6.57-15.37,15.28s6.605,15.325,15.37,15.325c5.395,0,9.71-2.28,12.48-6.595l.165-.25-5.2-3.58h0ZM425.165,79.635l-.015-.295h-14.285v5.87h7.22c-.76,2.465-3.365,4.84-7.68,4.84-5.03,0-8.68-3.94-8.68-9.365s3.55-9.24,8.635-9.24c3.02,0,5.27,1.26,6.88,3.855l.175.28,5.24-3.72-.16-.25c-2.7-4.175-6.67-6.205-12.135-6.205-8.81,0-15.45,6.57-15.45,15.28s6.535,15.325,15.54,15.325c4.595,0,8.375-1.415,10.93-4.1,2.735-2.87,4.045-7.11,3.79-12.27M380.08,65.73v12.57c0,1.315-.0649,2.545.045,3.69-.715-.9-1.655-1.71-2.58-2.585l-14.755-13.85-.09-.085h-1.035v30.135h6.255v-12.57c0-1.355.07-2.595-.055-3.73.72.895,1.64,1.73,2.585,2.62l14.7549,13.85.0901.085h1.0349v-30.13h-6.2549.005ZM270.445,95.58h-7.61l-5.935-10.15h-3.34v10.15h-6.64v-29.87h11.15c7.01,0,11.195,3.72,11.195,9.945,0,4.08-1.98,7.165-5.58,8.71l6.765,11.215h-.0051ZM262.44,75.655c0-2.755-1.445-4.035-4.55-4.035h-4.335v8.11h4.335c3.105,0,4.55-1.295,4.55-4.08M302.8,95.53h-6.51l-1.945-4.78h-10.73l-1.945,4.78h-6.51l13.33-30.13h.975l13.33,30.13h.0051ZM292.355,85.555l-2.57-6.56c-.485-1.23-.805-2.285-.805-2.285,0,0-.32,1.055-.805,2.285l-2.57,6.56h6.75ZM7.04,65.705l4.775,12.84-3.94,8.355L0,65.705h7.04ZM21.1,65.705l11.095,23.57-2.335,6.295h-1.1l-8.275-17.56-8.275,17.56h-1.1l-2.34-6.295,11.095-23.57h1.24-.005ZM40.96,65.705l-7.875,21.195-3.94-8.355,4.77-12.84h7.045Z"/>
  <path class="st0" d="M16.45,25.69c-1.83-2.745-2.385-2.925-2.835-2.925s-.73.19-1.55,1.83L.455,47.8c-.365.73-.455,1.01-.455,1.375,0,.73.645,1.46,2.015,1.46h16.36c1.095,0,1.915-.92,2.385-2.645.555-2.195.73-4.11.73-6.405,0-6.405-2.84-12.62-5.03-15.91l-.015.015s.005,0,.005,0ZM50.185,47.625L26.965,1.185c-.455-1.01-.905-1.185-1.465-1.185-.45,0-1.01.19-1.55,1.1-3.29,5.205-4.755,11.245-4.755,17.545,0,8.775,4.475,17.005,11.055,30.255.73,1.46,1.285,1.74,2.56,1.74h16.085c1.185,0,1.83-.45,1.83-1.375,0-.455-.085-.73-.555-1.655,0,0,.015.015.015.015ZM260.93,36.685c0-7.765-4.035-11.33-15.675-13.82-6.36-1.405-7.91-2.79-7.91-4.81,0-2.485,2.325-3.57,6.525-3.57,5.12,0,10.09,1.55,14.9,3.73v-10.09c-3.42-1.71-8.54-2.955-14.595-2.955-11.49,0-17.385,4.97-17.385,13.045M226.775,17.9c0,6.52,2.955,11.64,14.9,13.965,6.99,1.55,8.54,2.635,8.54,4.97s-1.55,3.73-6.52,3.73c-5.745,0-12.575-2.015-17.08-4.65v10.56c3.565,1.71,8.235,3.73,17.08,3.73,12.415,0,17.225-5.585,17.225-13.655M400.65,5.485l10.7,20.18,3.565,8.375V5.485h9.315v44.245h-11.8l-13.35-24.845-3.875-8.845v33.69h-9.475V5.485h14.92,0ZM325.81,49.73h-10.25V5.485h10.25v44.245ZM303.775,36.54c0,8.235-4.955,13.82-17.225,13.82-8.845,0-13.51-2.015-17.075-3.73v-10.56c4.5,2.635,11.33,4.65,17.075,4.65,4.975,0,6.52-1.39,6.52-3.73s-1.55-3.42-8.54-4.97c-11.945-2.325-14.9-7.445-14.9-13.965,0-8.07,5.895-13.045,17.385-13.045,6.05,0,11.185,1.24,14.5949,2.955v10.09c-4.81-2.18-9.7849-3.73-14.9-3.73-4.195,0-6.52,1.085-6.52,3.565,0,2.02,1.55,3.41,7.91,4.81,11.64,2.485,15.675,6.055,15.675,13.82v.02h0ZM157.23,5.485v34.625h14.125l-3.26,9.62h-21.115V5.485h10.25ZM105.22,5.47h33.995v9.475h-12.265v34.785h-10.395V14.96h-11.335V5.47h0ZM83.34,34.2c-2.015,0-3.875-.31-5.585-.775l5.585-19.245,5.585,19.245c-1.71.465-3.565.775-5.585.775ZM90.17,5.485h-13.51l-15.37,44.245h11.8l2.18-7.46c2.635.775,5.44,1.24,8.235,1.24s5.585-.465,8.235-1.24l2.18,7.46h11.8c-.16,0-15.53-44.245-15.53-44.245h-.02ZM197.745,34.2c-2.015,0-3.875-.31-5.585-.775l5.585-19.245,5.585,19.245c-1.71.465-3.565.775-5.585.775ZM204.575,5.485h-13.51l-15.525,44.245h11.8l2.18-7.46c2.635.775,5.44,1.24,8.235,1.24s5.585-.465,8.235-1.24l2.18,7.46h11.8l-15.37-44.245h-.025ZM356.24,34.2c-2.015,0-3.875-.31-5.585-.775l5.585-19.245,5.585,19.245c-1.71.465-3.73.775-5.585.775ZM362.92,5.485h-13.51l-15.37,44.245h11.8l2.18-7.46c2.635.775,5.44,1.24,8.235,1.24s5.585-.465,8.235-1.24l2.18,7.46h11.8l-15.53-44.245h-.02,0Z"/>
</svg>